<svg width="1280.0000000000002" height="1280.0000000000002" xmlns="http://www.w3.org/2000/svg" preserveAspectRatio="xMidYMid meet" version="1.0">
 <metadata>Created by potrace 1.15, written by Peter Selinger 2001-2017</metadata>

 <g>
  <title>Layer 1</title>
  <g id="svg_1" fill="#ff0000" transform="rotate(-135 640 639.925) translate(0 1280) scale(0.1 -0.1)">
   <path id="svg_2" d="m6055,11684c-969,-75 -1819,-365 -2600,-889c-301,-201 -533,-393 -795,-655c-267,-267 -456,-498 -665,-810c-475,-712 -749,-1461 -857,-2342c-20,-162 -22,-229 -22,-588c0,-429 10,-570 65,-888c186,-1085 697,-2070 1479,-2852c267,-267 498,-456 810,-665c638,-425 1331,-698 2081,-819c328,-53 427,-60 849,-60c422,0 521,7 849,60c1997,322 3653,1780 4226,3720c89,302 145,576 187,916c20,162 22,229 22,588c0,429 -10,572 -65,888c-125,724 -395,1408 -795,2016c-811,1231 -2096,2071 -3543,2316c-292,49 -440,61 -816,64c-198,2 -382,2 -410,0zm795,-829c931,-97 1798,-474 2490,-1082c832,-731 1354,-1705 1500,-2795c117,-881 -39,-1792 -444,-2593c-264,-520 -612,-968 -1056,-1358c-1345,-1181 -3290,-1440 -4896,-653c-889,435 -1606,1145 -2048,2027c-635,1265 -632,2750 8,4014c264,520 612,968 1056,1358c670,588 1501,959 2400,1072c293,37 694,41 990,10z"/>
   <path id="svg_3" d="m5715,9361c-48,-22 -79,-54 -100,-103c-13,-33 -15,-158 -15,-1048l0,-1010l-1012,0c-963,0 -1015,-1 -1053,-19c-48,-22 -79,-54 -100,-103c-13,-32 -15,-122 -15,-678c0,-556 2,-646 15,-678c21,-49 52,-81 100,-103c38,-18 90,-19 1053,-19l1012,0l0,-1012c0,-963 1,-1015 19,-1053c22,-48 54,-79 103,-100c32,-13 122,-15 680,-15c602,0 646,2 683,19c50,22 91,69 105,119c6,24 10,381 10,1040l0,1002l1010,0c890,0 1015,2 1048,15c49,21 81,52 103,100c17,38 19,79 19,685c0,604 -2,648 -19,685c-22,50 -69,91 -119,105c-24,6 -381,10 -1039,10l-1003,0l0,1003c0,658 -4,1015 -10,1039c-14,50 -55,97 -105,119c-37,17 -81,19 -685,19c-606,0 -647,-2 -685,-19z"/>
  </g>
 </g>
</svg>